<svg xmlns="http://www.w3.org/2000/svg" width="243" height="30" viewBox="0 0 243 30"><defs><style>.fig-1{fill:#36c0b8}.fig-2{fill:#fff}</style></defs><path id="figure-1" class="fig-1" d="M0 0h3v30H0z"/><path id="figure-2" class="fig-2" d="M10 10h3v20h-3z"/><path id="figure-3" class="fig-3" d="M20 10h3v20h-3z"/><path id="figure-4" class="fig-4" d="M30 10h3v20h-3z"/><path id="figure-5" class="fig-5" d="M40 0h3v30h-3z"/><path id="figure-6" class="fig-6" d="M50 10h3v20h-3z"/><path id="figure-7" class="fig-7" d="M60 10h3v20h-3z"/><path id="figure-8" class="fig-8" d="M70 10h3v20h-3z"/><path id="figure-9" class="fig-9" d="M80 0h3v30h-3z"/><path id="figure-10" class="fig-10" d="M90 10h3v20h-3z"/><path id="figure-11" class="fig-11" d="M100 10h3v20h-3z"/><path id="figure-12" class="fig-12" d="M110 10h3v20h-3z"/><path id="figure-13" class="fig-13" d="M120 0h3v30h-3z"/><path id="figure-14" class="fig-14" d="M130 10h3v20h-3z"/><path id="figure-15" class="fig-15" d="M140 10h3v20h-3z"/><path id="figure-16" class="fig-16" d="M150 10h3v20h-3z"/><path id="figure-17" class="fig-17" d="M160 0h3v30h-3z"/><path id="figure-18" class="fig-18" d="M170 10h3v20h-3z"/><path id="figure-19" class="fig-19" d="M180 10h3v20h-3z"/><path id="figure-20" class="fig-20" d="M190 10h3v20h-3z"/><path id="figure-21" class="fig-21" d="M200 0h3v30h-3z"/><path id="figure-22" class="fig-22" d="M210 10h3v20h-3z"/><path id="figure-23" class="fig-23" d="M220 10h3v20h-3z"/><path id="figure-24" class="fig-24" d="M230 10h3v20h-3z"/><path id="figure-25" class="fig-25" d="M240 0h3v30h-3z"/></svg>